<svg xmlns="http://www.w3.org/2000/svg" viewBox="0 0 450 180"><defs><style>.cls-1{fill:#006241;}.cls-2{fill:#fff;}.cls-3{fill:#55565a;}</style></defs><title>Logo Klorane</title><g id="Calque_1" data-name="Calque 1"><polygon class="cls-1" points="83.55 35.78 87.56 35.78 87.56 37.29 81.89 37.29 81.89 24.07 83.55 24.07 83.55 35.78"/><path class="cls-1" d="M109.08,27.12l-2.34,5.34h4.69Zm-3,6.84-1.51,3.32h-1.77l6.3-13.77,6.31,13.77h-1.77L112.12,34Z"/><path class="cls-1" d="M133.54,35.81h1.26c1.52,0,3.12-.46,3.12-2.33s-1.9-2.24-3.36-2.24h-1Zm0-5.89H134c1.56,0,2.84-.31,2.84-2.21s-1.26-2.17-2.81-2.17h-.45Zm-1.66-5.85h1.62c2.49,0,4.83.66,4.83,3.63a2.82,2.82,0,0,1-1.41,2.5v0a3.41,3.41,0,0,1,2.64,3.35c0,2.65-2.26,3.71-4.59,3.71h-3.09Z"/><path class="cls-1" d="M168.21,30.67a5.28,5.28,0,1,0-10.56,0,5.28,5.28,0,1,0,10.56,0m1.64,0a6.92,6.92,0,0,1-13.84,0,6.92,6.92,0,0,1,13.84,0"/><path class="cls-1" d="M188.62,30.33h.52c1.68,0,3.51-.32,3.51-2.41s-2-2.37-3.6-2.37h-.44Zm6.57,7h-2l-3.88-5.59h-.69v5.59H187V24.07h2a7.08,7.08,0,0,1,3.49.61,3.68,3.68,0,0,1,1.73,3.16A3.59,3.59,0,0,1,191,31.53Z"/><path class="cls-1" d="M216.93,27.12l-2.34,5.34h4.69Zm-3,6.84-1.5,3.32h-1.77l6.31-13.77,6.3,13.77h-1.75L219.95,34Z"/><polygon class="cls-1" points="242.02 37.29 240.37 37.29 240.37 25.57 237.24 25.57 237.24 24.07 245.16 24.07 245.16 25.57 242.02 25.57 242.02 37.29"/><path class="cls-1" d="M273.26,30.67a5.27,5.27,0,1,0-10.54,0,5.27,5.27,0,1,0,10.54,0m1.65,0a6.92,6.92,0,0,1-13.84,0,6.92,6.92,0,0,1,13.84,0"/><rect class="cls-1" x="291.98" y="24.07" width="1.65" height="13.22"/><path class="cls-1" d="M313.28,30.33h.52c1.68,0,3.5-.32,3.5-2.41s-2-2.37-3.59-2.37h-.43Zm6.57,7h-2L314,31.69h-.68v5.59h-1.65V24.07h2a7.06,7.06,0,0,1,3.49.61,3.66,3.66,0,0,1,1.74,3.16,3.6,3.6,0,0,1-3.18,3.69Z"/><polygon class="cls-1" points="336.66 24.07 343.77 24.07 343.77 25.57 338.31 25.57 338.31 29.28 343.61 29.28 343.61 30.78 338.31 30.78 338.31 35.78 343.77 35.78 343.77 37.29 336.66 37.29 336.66 24.07"/><path class="cls-1" d="M367.21,26.58a2.29,2.29,0,0,0-2.13-1.25,2.08,2.08,0,0,0-2.21,1.87c0,1,1,1.58,1.83,1.89l1,.37c1.87.74,3.28,1.78,3.28,4a4.07,4.07,0,0,1-4.24,4.12,4.12,4.12,0,0,1-4.07-3.7l1.67-.35a2.49,2.49,0,1,0,5-.08c0-1.41-1.15-2-2.28-2.5l-.92-.39c-1.49-.65-2.87-1.51-2.87-3.35a3.61,3.61,0,0,1,3.89-3.41,3.79,3.79,0,0,1,3.4,2Z"/><rect class="cls-1" x="31.39" y="50.27" width="389.53" height="75.93"/><path class="cls-2" d="M106.83,107.37v-.8c.75,0,1.18,0,1.18-.89s-7.67-12.73-8.61-14.43l-6.1,6v8.13c0,.61.19,1.09,1.75,1.23v.8H82.2v-.8c1.55-.14,1.74-.62,1.74-1.23V73.77c0-.61-.18-1.09-1.74-1.23v-.82H95.05v.82c-1.56.14-1.75.62-1.75,1.23V86h.43c5-5.28,12.23-11.78,12.23-12.52s-.44-.82-1.12-.89v-.82h15.84v.82c-1.63.14-1.93.68-3.5,2.18L106.4,84.81l12.71,20.67a1.86,1.86,0,0,0,2,1.09v.8Z"/><path class="cls-2" d="M137,99.11h21.45c.68,0,.93-.34,1.11-1.89h.75v11.91h-.75c-.18-1.41-.43-1.75-1.11-1.75H125.94v-.8c1.56-.14,1.74-.62,1.74-1.23V73.77c0-.61-.18-1.08-1.74-1.23v-.82h12.85v.82c-1.56.14-1.75.62-1.75,1.23Z"/><path class="cls-2" d="M172.4,89.56c0,6.36,4.81,10,10.23,10s10.23-3.59,10.23-10-4.81-10-10.23-10-10.23,3.6-10.23,10m29.69,0c0,11.85-8.85,18.22-19.46,18.22s-19.46-6.36-19.46-18.22S172,71.32,182.63,71.32s19.46,6.37,19.46,18.23"/><path class="cls-2" d="M217.2,86.77h10.48c3.67,0,4.8-1.75,4.8-3.72s-1.13-3.73-4.8-3.73H217.2Zm0,18.57c0,.61.19,1.09,1.75,1.23v.8H206.11v-.8c1.56-.14,1.74-.62,1.74-1.23V73.77c0-.61-.18-1.09-1.74-1.23v-.82h22.82c9.24,0,13.16,3.53,13.16,11.25,0,6.23-3.75,9.55-8.92,11.1l7.35,11.25a2.12,2.12,0,0,0,1.82,1.23v.8h-13v-.8c.88-.08,1.38-.41,1.38-1.23,0-.61-6.61-10-7.42-11.37H217.2Z"/><path class="cls-2" d="M259.53,94.22h11.6l-6-16.12ZM258,99.65c-1.62,4.95-2,5.83-2,6.24s.23.68,1.11.68v.8h-11v-.8c.87-.21,1.24-.48,1.62-1.56.56-1.56,11.1-31.38,11.1-31.78s-.69-.61-1.25-.68v-.82h16.28v.82c-.69.07-1.12.21-1.12.89s7.67,20.79,11.53,31.1c.63,1.63,1,2,1.74,2v.8H273.69v-.8c.87-.08,1.19-.41,1.19-.82s-1.87-5.22-2.12-6.11Z"/><path class="cls-2" d="M292.76,73.77c0-.61-.19-1.09-1.74-1.23v-.82h15v.82c-1.44.07-1.75.47-1.75.89,0,.74,10.79,13.21,15.15,18.42V73.77c0-.82-.51-1.16-1.32-1.23v-.82h11.42v.82c-1.56.14-1.75.62-1.75,1.23v31.57c0,.61.19,1.09,1.75,1.23v.8H317.7v-.8c1.12,0,1.44-.27,1.44-.76,0-.88-1.57-1.76-18-21.74v21.27c0,.61.18,1.09,1.74,1.23v.8H291v-.8c1.55-.14,1.74-.62,1.74-1.23Z"/><path class="cls-2" d="M362.28,94.36h-.76a1.7,1.7,0,0,0-1.87-1.55H348V99.1h20c.7,0,.94-.34,1.12-2h.76v11.79h-.76c-.18-1.15-.42-1.49-1.12-1.49H337v-.8c1.56-.14,1.74-.62,1.74-1.23V73.77c0-.61-.18-1.09-1.74-1.23v-.82h31.11c.7,0,.94-.33,1.12-1.89h.76V81.63h-.76c-.18-1.56-.42-1.9-1.12-1.9H348v5.63h11.61a1.7,1.7,0,0,0,1.87-1.56h.76Z"/><path class="cls-3" d="M81.55,145.29c0-1.58-.07-3.18-.15-4.74.64.05,1.3.09,1.95.09s1.3-.09,1.95-.09c2.09,0,3.87.57,3.87,2.64,0,1.8-1.25,2.81-3.08,3.21v0c2.18.11,3.52,1,3.52,3.08,0,2.72-2.52,3.69-4.64,3.69-.59,0-1.19-.09-1.78-.09s-1.19,0-1.78.09c.07-1.6.15-3.19.15-4.77Zm2.5.9c1.73,0,3.51-.61,3.51-2.64s-1.6-2.31-3-2.31a8.75,8.75,0,0,0-1.39.09c0,1.16-.11,2.33-.11,3.49v1.38Zm-1,2.55c0,1.23.07,2.48.11,3.71a16.3,16.3,0,0,0,1.8.09,2.89,2.89,0,0,0,3-3.08c0-2.09-1.6-2.59-4-2.59h-.83Z"/><path class="cls-3" d="M101.54,140.31c4.06,0,6.88,2.4,6.88,6.57s-2.83,6.57-6.88,6.57-6.87-2.4-6.87-6.57,2.83-6.57,6.87-6.57m0,.68c-2.86,0-5.07,1.82-5.07,5.89s2.2,5.89,5.07,5.89,5.09-1.82,5.09-5.89-2.2-5.89-5.09-5.89"/><path class="cls-3" d="M115.81,145.3q0-1.9-.05-3.8a36.68,36.68,0,0,0-3.93.2,2,2,0,0,0,.09-.59,2.14,2.14,0,0,0-.09-.57c1.58.05,3.16.09,4.74.09s3.16,0,4.74-.09a2.18,2.18,0,0,0-.09.59,2.05,2.05,0,0,0,.09.57,36.66,36.66,0,0,0-3.93-.2q-.05,1.9-.05,3.8v3.16c0,1.58.07,3.18.15,4.75a4.44,4.44,0,0,0-1.8,0c.07-1.58.15-3.18.15-4.75Z"/><path class="cls-3" d="M129.66,140.31c1.8,4.26,4.55,10.94,5.53,12.91a5.19,5.19,0,0,0-1.95,0c-.35-1.27-1.23-3.29-1.89-4.92-.79,0-1.6,0-2.4,0s-1.49,0-2.24,0a49.73,49.73,0,0,0-1.78,4.92,2.55,2.55,0,0,0-1.36,0c2-4.3,3.87-8.57,5.75-12.91Zm-.61,2.48-2,4.66c.64,0,1.34,0,2,0s1.38,0,2.06,0Z"/><path class="cls-3" d="M150.57,153.45c-2.79-3.29-6.13-6.81-9.27-10.15,0,.68-.05,1.78-.05,3.73,0,1.58.07,5.45.16,6.19a2.47,2.47,0,0,0-.64-.09,3,3,0,0,0-.68.09c.15-.86.39-5.56.39-8s0-4.09-.05-4.92h.29c3,3.25,7,7.67,9.29,9.93,0-3.29,0-6.87-.15-9.69a2.45,2.45,0,0,0,.62.09,2.18,2.18,0,0,0,.59-.09c-.11,1.08-.29,4.72-.29,6.15,0,1.87,0,5.93.05,6.76Z"/><path class="cls-3" d="M157.45,145.3c0-1.58-.07-3.18-.15-4.75a4.44,4.44,0,0,0,1.8,0c-.07,1.58-.15,3.18-.15,4.75v3.16c0,1.58.07,3.18.15,4.75a4.44,4.44,0,0,0-1.8,0c.07-1.58.15-3.18.15-4.75Z"/><path class="cls-3" d="M171.33,140.31c4.06,0,6.88,2.4,6.88,6.57a6.07,6.07,0,0,1-4.85,6.35c1.3,1,2.66,2.11,4.15,3.16a2,2,0,0,0-1.43.75c-1.34-1.23-2.7-2.46-4.22-3.71a5.11,5.11,0,0,1-.53,0c-4,0-6.87-2.4-6.87-6.57s2.83-6.57,6.87-6.57m0,.68c-2.86,0-5.07,1.82-5.07,5.89s2.2,5.89,5.07,5.89,5.09-1.82,5.09-5.89-2.2-5.89-5.09-5.89"/><path class="cls-3" d="M193.18,140.55a3.38,3.38,0,0,0,.75.09,1.83,1.83,0,0,0,.55-.09c-.15,1.71-.29,4.94-.33,7.62,0,3.25-1.93,5.29-5.23,5.29-3.63,0-5.25-1.69-5.25-5.25,0-1.14.09-2,.09-2.9,0-2-.07-3.69-.11-4.75a5.62,5.62,0,0,0,1,.09,3.72,3.72,0,0,0,.79-.09c-.11,1.08-.22,3.58-.22,6.3,0,2.5,0,5.75,4.09,5.75s4-3.76,4-6.08c0-3.49,0-5.25-.11-6"/><path class="cls-3" d="M200.94,145.28c0-1.58-.07-3.18-.15-4.74,1.1.06,2.18.09,3.29.09s2.18,0,3.27-.09a2.79,2.79,0,0,0,0,1.1c-1.54-.11-2.44-.24-4.83-.24,0,.79-.07,1.43-.07,2.33s0,2,0,2.42c2.17,0,3.38-.09,4.46-.18a3,3,0,0,0-.05.57,2.83,2.83,0,0,0,.05.55c-1.27-.13-3.58-.17-4.46-.17,0,.44,0,.9,0,2.66,0,1.4,0,2.29,0,2.75a33.51,33.51,0,0,0,5-.24,3,3,0,0,0-.05.57,2.64,2.64,0,0,0,.05.53c-1.08-.05-2.18-.09-3.3-.09s-2.22,0-3.34.09c.07-1.6.15-3.19.15-4.77Z"/><path class="cls-3" d="M221.1,145.3c0-1.58-.07-3.18-.15-4.75.92.05,1.85.09,2.77.09s1.85-.09,2.77-.09c4.3,0,6.06,2.29,6.06,6.08,0,4.9-3.78,6.59-6.68,6.59-.83,0-1.63-.09-2.46-.09s-1.63,0-2.46.09c.07-1.58.15-3.18.15-4.75Zm1.51,3.16c0,1.3,0,2.62.11,3.89a13.47,13.47,0,0,0,2.4.18c2.7,0,5.64-1.06,5.64-5.91,0-4.26-2.2-5.31-5.21-5.31a23.47,23.47,0,0,0-2.83.18c-.07,1.17-.11,2.48-.11,3.8Z"/><path class="cls-3" d="M238.32,145.28c0-1.58-.07-3.18-.15-4.74,1.1.06,2.18.09,3.29.09s2.18,0,3.27-.09a2.79,2.79,0,0,0,0,1.1c-1.54-.11-2.44-.24-4.83-.24,0,.79-.07,1.43-.07,2.33s0,2,0,2.42c2.17,0,3.38-.09,4.46-.18a3,3,0,0,0-.05.57,2.77,2.77,0,0,0,.05.55c-1.27-.13-3.58-.17-4.46-.17,0,.44,0,.9,0,2.66,0,1.4,0,2.29,0,2.75a33.53,33.53,0,0,0,5-.24,3,3,0,0,0-.05.57,2.59,2.59,0,0,0,.05.53c-1.08-.05-2.18-.09-3.3-.09s-2.22,0-3.34.09c.07-1.6.15-3.19.15-4.77Z"/><path class="cls-3" d="M258.48,145.3c0-1.58-.07-3.18-.15-4.75.59.05,1.19.09,1.78.09s1.76-.09,2.28-.09c1.1,0,4,0,4,3.1,0,3.23-3.18,3.85-4.94,3.85-.55,0-1,0-1.49-.05v1c0,1.58.07,3.18.15,4.75a4.44,4.44,0,0,0-1.8,0c.07-1.58.15-3.18.15-4.75Zm1.51,1.38a6.14,6.14,0,0,0,1.3.15c1.51,0,3.43-.57,3.43-3.07,0-2.09-1.19-2.53-3.08-2.53H260Z"/><path class="cls-3" d="M271.62,145.3c0-1.58-.07-3.18-.15-4.75.7.05,1.4.09,2.09.09s1.4-.09,2.09-.09c2.07,0,3.82.72,3.82,2.9,0,2.37-2.37,3.32-3.76,3.51.9,1.12,4,5.07,5,6.26a7.45,7.45,0,0,0-1.1-.09,7,7,0,0,0-1.06.09,53.2,53.2,0,0,0-4.75-6.1h-.7v1.34c0,1.58.07,3.18.15,4.75a4.44,4.44,0,0,0-1.8,0c.07-1.58.15-3.18.15-4.75Zm1.51,1a6,6,0,0,0,1.23.09c1.5,0,3.51-.62,3.51-2.81,0-1.93-1.6-2.4-2.85-2.4a16.8,16.8,0,0,0-1.78.09c-.05,1.34-.11,2.66-.11,4Z"/><path class="cls-3" d="M285.78,145.28c0-1.58-.07-3.18-.15-4.74,1.1.06,2.18.09,3.29.09s2.18,0,3.27-.09a2.79,2.79,0,0,0,0,1.1c-1.54-.11-2.44-.24-4.83-.24,0,.79-.07,1.43-.07,2.33s0,2,0,2.42c2.17,0,3.38-.09,4.46-.18a3,3,0,0,0-.05.57,2.83,2.83,0,0,0,.05.55c-1.27-.13-3.58-.17-4.46-.17,0,.44,0,.9,0,2.66,0,1.4,0,2.29,0,2.75a33.52,33.52,0,0,0,5-.24,3,3,0,0,0-.05.57,2.64,2.64,0,0,0,.05.53c-1.08-.05-2.18-.09-3.3-.09s-2.22,0-3.34.09c.07-1.6.15-3.19.15-4.77Z"/><path class="cls-3" d="M307.39,152.41a7,7,0,0,1-3.82,1c-3.87,0-6.7-2.4-6.7-6.57s2.83-6.57,6.88-6.57a9.72,9.72,0,0,1,4,.84,6.11,6.11,0,0,0-.39,1.43l-.11,0a4.87,4.87,0,0,0-3.49-1.63c-2.88,0-5.09,1.82-5.09,5.89s2.2,5.89,5.09,5.89a6.13,6.13,0,0,0,3.73-1.52l.07.07Z"/><path class="cls-3" d="M313.08,145.3c0-1.58-.07-3.18-.15-4.75a4.44,4.44,0,0,0,1.8,0c-.07,1.58-.15,3.18-.15,4.75v3.16c0,1.58.07,3.18.15,4.75a4.44,4.44,0,0,0-1.8,0c.07-1.58.15-3.18.15-4.75Z"/><path class="cls-3" d="M320.71,150.77a3.17,3.17,0,0,0,2.9,1.91,2.53,2.53,0,0,0,2.62-2.66c0-3.38-5.78-1.93-5.78-6.24,0-2,1.54-3.47,4-3.47a4.06,4.06,0,0,1,2.72.86,5.66,5.66,0,0,0-.5,1.54h-.22a2.31,2.31,0,0,0-2.18-1.73,2.23,2.23,0,0,0-2.37,2.28c0,3.43,5.78,2,5.78,6.06a4.15,4.15,0,0,1-4.5,4.13,4.47,4.47,0,0,1-3-1,5.49,5.49,0,0,0,.35-1.63Z"/><path class="cls-3" d="M333.23,145.3c0-1.58-.07-3.18-.15-4.75a4.44,4.44,0,0,0,1.8,0c-.07,1.58-.15,3.18-.15,4.75v3.16c0,1.58.07,3.18.15,4.75a4.44,4.44,0,0,0-1.8,0c.07-1.58.15-3.18.15-4.75Z"/><path class="cls-3" d="M347.11,140.31c4.06,0,6.88,2.4,6.88,6.57s-2.83,6.57-6.88,6.57-6.87-2.4-6.87-6.57,2.83-6.57,6.87-6.57m0,.68c-2.86,0-5.07,1.82-5.07,5.89s2.2,5.89,5.07,5.89,5.08-1.82,5.08-5.89S350,141,347.11,141"/><path class="cls-3" d="M369.84,153.45c-2.79-3.29-6.13-6.81-9.27-10.15,0,.68-.05,1.78-.05,3.73,0,1.58.07,5.45.16,6.19a2.47,2.47,0,0,0-.64-.09,3,3,0,0,0-.68.09c.15-.86.39-5.56.39-8s0-4.09-.05-4.92H360c3,3.25,7,7.67,9.29,9.93,0-3.29,0-6.87-.15-9.69a2.44,2.44,0,0,0,.62.09,2.18,2.18,0,0,0,.59-.09c-.11,1.08-.29,4.72-.29,6.15,0,1.87,0,5.93.06,6.76Z"/></g></svg>